<svg width="231" height="171" viewBox="0 0 231 171" fill="none" xmlns="http://www.w3.org/2000/svg">
<path fill-rule="evenodd" clip-rule="evenodd" d="M171.097 93.5933C167.019 137.017 130.517 170.996 86.0681 170.996C45.0488 170.996 10.7949 142.047 2.54926 103.452C3.32989 97.1586 6.17087 88.5337 15.4019 83.9095C31.0358 76.0873 50.8246 99.3148 65.7248 114.716C80.625 130.121 106.936 147.418 138.238 136.172C160.446 128.191 169.54 107.197 171.093 93.5933H171.097Z" fill="#008ECD"/>
<path fill-rule="evenodd" clip-rule="evenodd" d="M218.191 89.6524L220.251 87.5772L219.684 77.5476L223.19 74.0079C223.758 73.4358 223.753 72.505 223.182 71.9371C222.61 71.3692 221.68 71.3735 221.113 71.9456L219.458 73.6151L218.895 63.6537L221.851 60.6692C222.418 60.097 222.414 59.1662 221.842 58.5983C221.271 58.0304 220.341 58.0347 219.773 58.6069L218.669 59.7213L218.204 51.5319C226.138 43.0948 232.298 34.4058 230.241 32.3649C228.185 30.3196 219.552 36.5535 211.186 44.5636L203 44.1622L204.105 43.0478C204.673 42.4757 204.668 41.5449 204.097 40.977C203.525 40.4091 202.595 40.4134 202.032 40.9855L199.076 43.9701L189.12 43.4833L190.775 41.8139C191.342 41.2417 191.338 40.3109 190.766 39.7473C190.195 39.1794 189.265 39.1837 188.697 39.7558L185.191 43.2912L175.167 42.8044L173.106 44.8796L200.957 55.3319C192.754 64.6016 184.909 74.5075 184.909 74.5075L172.505 73.8414L171.229 75.4853L179.876 81.1598L179.125 83.9223L181.877 83.1495L187.61 91.7574L189.243 90.4679L188.484 78.0599C188.484 78.0599 198.321 70.131 207.518 61.8476L218.178 89.6438L218.191 89.6524Z" fill="#0A6E87"/>
<path fill-rule="evenodd" clip-rule="evenodd" d="M170.897 75.37C165.893 32.9242 129.822 0 86.0681 0C38.8933 0 0.651001 38.2785 0.651001 85.4979C0.651001 87.842 0.744847 90.1605 0.928274 92.4533C2.15254 59.2089 21.5275 44.1409 49.4724 49.2475C77.6987 54.4097 99.8081 84.7677 132.484 91.9708C149.231 95.6642 164.622 89.3577 170.897 75.37ZM166.75 109.071C147.631 124.788 108.455 119.242 73.0747 87.0948C31.8591 49.6446 6.26898 65.0371 0.979463 93.0383C4.79303 136.727 41.4357 170.996 86.0724 170.996C45.0531 170.996 10.7992 142.047 2.55352 103.452C3.33415 97.1586 6.17513 88.5337 15.4062 83.9095C31.0401 76.0873 50.8289 99.3148 65.7291 114.716C80.6293 130.121 106.94 147.418 138.242 136.172C152.972 130.877 161.934 119.861 166.75 109.071Z" fill="#00CCFF"/>
</svg>
